<svg xmlns="http://www.w3.org/2000/svg" width="168" height="168" data-name="Layer 1" viewBox="0 0 168 168"><path fill="#0bceb2" d="M46.78876,40.6608a1.50225,1.50225,0,0,0-1.39307,1.198L42.43335,54.44046l-2.8869-12.52209a1.428,1.428,0,0,0-2.83551,0L33.824,54.44046,30.86169,41.8588a1.50226,1.50226,0,0,0-1.39313-1.198A1.62124,1.62124,0,0,0,28,42.39828a1.82608,1.82608,0,0,0,.0755.53827l4.33026,17.16656a1.50084,1.50084,0,0,0,1.39313,1.198,1.53361,1.53361,0,0,0,1.41827-1.28729l2.911-12.284,2.912,12.284a1.53361,1.53361,0,0,0,1.41827,1.28729,1.50084,1.50084,0,0,0,1.39313-1.198l4.33026-17.16656a1.82608,1.82608,0,0,0,.0755-.53827A1.62124,1.62124,0,0,0,46.78876,40.6608Z"/><path fill="#2d4356" d="M59.90656,57.94644H53.19672V52.43387H57.982a1.54957,1.54957,0,0,0,0-3.05585H53.19672V44.01547h6.431a1.57972,1.57972,0,0,0,0-3.1153h-7.9007a1.62124,1.62124,0,0,0-1.46857,1.73749V59.32431a1.62127,1.62127,0,0,0,1.46857,1.73749h8.1795a1.57975,1.57975,0,0,0,0-3.11536Z"/><path fill="#0bceb2" d="M72.44153,57.82614H66.44031V42.39828a1.48984,1.48984,0,1,0-2.93823,0V59.38382a1.53012,1.53012,0,0,0,1.44342,1.678h7.496a1.47344,1.47344,0,0,0,1.41718-1.61719A1.49074,1.49074,0,0,0,72.44153,57.82614Z"/><path fill="#2d4356" d="M88.39374,55.729a1.43908,1.43908,0,0,0-1.08807.65973,4.60224,4.60224,0,0,1-4.10284,1.97687c-3.368,0-4.887-2.12689-4.887-7.37042,0-4.94208,1.51892-7.39893,4.887-7.39893a4.5827,4.5827,0,0,1,3.976,2.09717,1.32865,1.32865,0,0,0,1.03772.599,1.49241,1.49241,0,0,0,1.368-1.5874,1.9095,1.9095,0,0,0-.27881-.98846,6.68715,6.68715,0,0,0-6.10291-3.2356c-5.03894,0-7.92578,3.41418-7.92578,10.51422,0,7.34064,2.88684,10.48578,7.92578,10.48578A7.44327,7.44327,0,0,0,89.508,58.24533a1.64883,1.64883,0,0,0,.25372-.89789A1.50275,1.50275,0,0,0,88.39374,55.729Z"/><path fill="#0bceb2" d="M99.51038,40.481c-5.11542,0-8.02747,3.41418-8.02747,10.51422,0,7.0108,2.912,10.48578,8.02747,10.48578,5.11444,0,8.02643-3.475,8.02643-10.48578C107.5368,43.89517,104.62482,40.481,99.51038,40.481Zm0,17.88464c-3.34283,0-4.98859-2.427-4.98859-7.37042,0-4.97186,1.64575-7.39893,4.98859-7.39893,3.34186,0,4.98865,2.42706,4.98865,7.39893C104.499,55.93863,102.85223,58.36563,99.51038,58.36563Z"/><path fill="#2d4356" d="M124.55408,40.6608a1.43025,1.43025,0,0,0-1.29144.95868l-5.3681,11.38361-5.36908-11.38361a1.43025,1.43025,0,0,0-1.29144-.95868,1.60984,1.60984,0,0,0-1.44238,1.7077V59.59341a1.46343,1.46343,0,1,0,2.8858,0V48.68851l3.976,8.35883a1.33709,1.33709,0,0,0,2.4812,0l3.976-8.35883V59.59341a1.46387,1.46387,0,1,0,2.88684,0V42.3685A1.60988,1.60988,0,0,0,124.55408,40.6608Z"/><path fill="#0bceb2" d="M138.68341 57.94644h-6.71088V52.43387h4.78625a1.54958 1.54958 0 0 0 0-3.05585h-4.78625V44.01547h6.432a1.5797 1.5797 0 0 0 0-3.1153h-7.90063a1.62119 1.62119 0 0 0-1.46857 1.73749V59.32431a1.62123 1.62123 0 0 0 1.46857 1.73749h8.1795a1.57975 1.57975 0 0 0 0-3.11536zM102.68256 118.33328a3.98033 3.98033 0 0 0-1.60254-1.0802l2.82166-12.48792a4 4 0 0 0-.44452-2.89355l-10.49884-18.04q-.02527-.0434-.05164-.08618A5.98232 5.98232 0 0 0 84 82.3959a5.98232 5.98232 0 0 0-8.90668 1.34949q-.02637.04276-.05164.08618l-10.49884 18.04a4 4 0 0 0-.44452 2.89355l2.82166 12.488a3.98019 3.98019 0 0 0-1.60254 1.08014l-6.31573 7.152a4 4 0 0 0 .30023 5.60077l9.68427 8.848a4.00034 4.00034 0 0 0 2.69788 1.04694q.107 0 .21429-.00574a4 4 0 0 0 2.78418-1.34656l6.31573-7.152a3.9838 3.9838 0 0 0 .80438-3.83862L84 126.4487l2.19733 2.18939a3.9838 3.9838 0 0 0 .80438 3.83862l6.31573 7.152a4 4 0 0 0 2.78418 1.34656q.1073.00577.21429.00574a4 4 0 0 0 2.69788-1.04694l9.68427-8.848a4 4 0 0 0 .30023-5.60077zM71.68427 136.981L62 128.133l6.31573-7.152L78 129.829zM82 99.331a5.98345 5.98345 0 0 0-8 5.65v6a2 2 0 0 0 4 0v-6a2 2 0 0 1 4 0v17.81378l-2.75946 2.74951-7.99725-7.3067L68 103.88358l10.49884-18.04a1.91173 1.91173 0 0 1 1.63531-.86255h.00006A1.77334 1.77334 0 0 1 82 86.64438zm4 23.46375V104.981a2 2 0 0 1 4 0v6a2 2 0 0 0 4 0v-6a5.98345 5.98345 0 0 0-8-5.65V86.64438A1.77334 1.77334 0 0 1 87.86578 84.981h.00006a1.91173 1.91173 0 0 1 1.63531.86255L100 103.88358l-3.24329 14.354-7.99725 7.3067zM96.31573 136.981L90 129.829l9.68427-8.848L106 128.133z"/><circle cx="2" cy="149.981" r="2" fill="#2d4356"/><path fill="#2d4356" d="M11 147.981H8a2 2 0 0 0 0 4h3a2 2 0 0 0 0-4zM160 147.981h-3a2 2 0 0 0 0 4h3a2 2 0 0 0 0-4z"/><circle cx="166" cy="149.981" r="2" fill="#2d4356"/><path fill="#0bceb2" d="M118.15387 155.981h-8.30774a2.00641 2.00641 0 0 0 0 4h8.30774a2.00641 2.00641 0 0 0 0-4zM58.15387 155.981H49.84613a2.00641 2.00641 0 0 0 0 4h8.30774a2.00641 2.00641 0 0 0 0-4zM104 155.981H64a2 2 0 0 0 0 4H79.94v2H72a2 2 0 0 0 0 4H97a2 2 0 0 0 0-4H88.06v-2H104a2 2 0 0 0 0-4z"/><path fill="#2d4356" d="M150.72131,147.981H137v-78h3a8.009,8.009,0,0,0,8-8v-22a8.009,8.009,0,0,0-8-8h-3v-2a6,6,0,0,0-12,0v2H43v-2a6,6,0,1,0-12,0v2H28a8.009,8.009,0,0,0-8,8v22a8.009,8.009,0,0,0,8,8h3v78H17.27869a2.017,2.017,0,1,0,0,4H150.72131a2.017,2.017,0,1,0,0-4ZM129,29.981a2,2,0,0,1,4,0v2h-4Zm-94,0a2,2,0,1,1,4,0v2H35Zm-7,36a4,4,0,0,1-4-4v-22a4,4,0,0,1,4-4H140a4,4,0,0,1,4,4v22a4,4,0,0,1-4,4Zm97,82H43v-78h82Zm-90,0v-78h4v78Zm94,0v-78h4v78Z"/><path fill="#2d4356" d="M86.05471 26.231a3 3 0 1 0-3-3A3.00344 3.00344 0 0 0 86.05471 26.231zm0-4.5a1.5 1.5 0 1 1-1.5 1.5A1.50148 1.50148 0 0 1 86.05471 21.731zM154.05471 48.481a2 2 0 1 0 2 2A2.00229 2.00229 0 0 0 154.05471 48.481zm0 3a1 1 0 1 1 1-1A1.001 1.001 0 0 1 154.05471 51.481zM8 5.481a2 2 0 1 0 2 2A2.00229 2.00229 0 0 0 8 5.481zm0 3a1 1 0 1 1 1-1A1.001 1.001 0 0 1 8 8.481zM157.5 27.231a2 2 0 1 0 2 2A2.00229 2.00229 0 0 0 157.5 27.231zm0 3a1 1 0 1 1 1-1A1.001 1.001 0 0 1 157.5 30.231zM27.30471 25.231a2 2 0 1 0-2 2A2.00229 2.00229 0 0 0 27.30471 25.231zm-3 0a1 1 0 1 1 1 1A1.001 1.001 0 0 1 24.30471 25.231z"/><polygon fill="#0bceb2" points="7.888 42.992 9.375 41.037 8.436 40.505 7.481 42.695 7.45 42.695 6.48 40.52 5.525 41.068 6.996 42.977 6.996 43.008 4.695 42.711 4.695 43.774 7.011 43.478 7.011 43.509 5.525 45.417 6.416 45.981 7.434 43.774 7.465 43.774 8.404 45.965 9.39 45.402 7.888 43.524 7.888 43.493 10.25 43.774 10.25 42.711 7.888 43.023 7.888 42.992"/><polygon fill="#0bceb2" points="59 3.749 58.144 4.848 58.657 5.173 59.244 3.902 59.261 3.902 59.802 5.163 60.37 4.839 59.505 3.758 59.505 3.74 60.865 3.902 60.865 3.289 59.505 3.469 59.505 3.452 60.361 2.325 59.82 2.019 59.271 3.28 59.252 3.28 58.694 2.028 58.144 2.343 58.991 3.443 58.991 3.461 57.666 3.289 57.666 3.902 59 3.731 59 3.749"/><polygon fill="#0bceb2" points="159.805 6.944 159.805 5.901 157.488 6.208 157.488 6.177 158.946 4.259 158.025 3.737 157.089 5.885 157.058 5.885 156.107 3.752 155.17 4.29 156.613 6.162 156.613 6.193 154.356 5.901 154.356 6.944 156.628 6.653 156.628 6.684 155.17 8.556 156.045 9.109 157.043 6.944 157.073 6.944 157.994 9.093 158.961 8.541 157.488 6.699 157.488 6.668 159.805 6.944"/><polygon fill="#0bceb2" points="116.748 5.567 118.006 3.912 117.211 3.462 116.404 5.315 116.377 5.315 115.557 3.475 114.748 3.939 115.993 5.554 115.993 5.58 114.047 5.329 114.047 6.229 116.006 5.977 116.006 6.004 114.748 7.619 115.503 8.096 116.364 6.229 116.39 6.229 117.185 8.082 118.019 7.606 116.748 6.017 116.748 5.99 118.746 6.229 118.746 5.329 116.748 5.593 116.748 5.567"/></svg>
